<svg width="124" height="124" viewBox="0 0 124 124" fill="none" xmlns="http://www.w3.org/2000/svg">
<path fill-rule="evenodd" clip-rule="evenodd" d="M46.4433 27.4243C50.6926 18.4428 58.3357 11.5171 67.6912 8.17092C77.0468 4.82469 87.3485 5.33201 96.33 9.58126C105.312 13.8305 112.237 21.4736 115.583 30.8292C118.93 40.1848 118.422 50.4865 114.173 59.468C113.605 60.7029 113.496 61.8705 113.749 62.8108L114.406 65.2702C116.514 73.1442 109.311 80.3465 101.437 78.2385L98.978 77.5824C98.1813 77.3908 97.3478 77.4176 96.5651 77.6599C95.7188 84.7973 93.1831 91.6302 89.1682 97.5918C85.1533 103.553 79.775 108.472 73.4793 111.94C67.1836 115.407 60.1519 117.324 52.9674 117.531C45.7829 117.738 38.6526 116.229 32.1678 113.129C31.1621 112.605 30.0025 112.457 28.8973 112.711L22.563 114.405C14.689 116.513 7.48663 109.311 9.59463 101.437L11.2893 95.1025C11.5426 93.9972 11.3943 92.8379 10.8708 91.832C7.76776 85.3394 6.25926 78.1998 6.47069 71.0069C6.68213 63.8139 8.60738 56.7754 12.0864 50.4762C15.5655 44.177 20.4978 38.7992 26.4734 34.7899C32.4491 30.7805 39.2954 28.2554 46.4433 27.4243ZM55.4643 27.2797C66.3153 28.1953 76.4714 32.9965 84.0659 40.8007C91.6604 48.605 96.1831 58.8881 96.8028 69.76C98.2032 69.6217 99.6171 69.7354 100.977 70.0958L103.437 70.752C103.919 70.8817 104.427 70.8821 104.909 70.7531C105.391 70.6241 105.831 70.3703 106.184 70.0173C106.537 69.6642 106.791 69.2244 106.92 68.742C107.049 68.2597 107.049 67.7518 106.919 67.2697L106.263 64.8103C105.452 61.7775 105.979 58.7498 107.121 56.244C110.233 49.4602 110.678 41.7534 108.367 34.6564C106.056 27.5594 101.159 21.5923 94.6486 17.942C88.1384 14.2916 80.4926 13.2255 73.2322 14.9557C65.9717 16.6859 59.6285 21.0856 55.4643 27.2797ZM51.6668 34.8747C45.3377 34.8733 39.1115 36.4757 33.5694 39.5321C28.0273 42.5885 23.3499 46.9994 19.9741 52.3529C16.5982 57.7065 14.6338 63.8281 14.2644 70.1464C13.8949 76.4646 15.1324 82.7735 17.8613 88.484C19.1838 91.1558 19.5081 94.2122 18.7758 97.102L17.0811 103.436C16.9518 103.918 16.9516 104.425 17.0803 104.907C17.2091 105.389 17.4624 105.828 17.8148 106.181C18.1671 106.534 18.6062 106.788 19.0877 106.917C19.5693 107.047 20.0765 107.047 20.5583 106.919L26.8978 105.224C29.7876 104.492 32.844 104.816 35.5158 106.139C40.5888 108.56 46.1416 109.808 51.7628 109.791C57.3839 109.774 62.9291 108.492 67.9874 106.041C73.0458 103.589 77.4875 100.031 80.9833 95.6286C84.4792 91.2268 86.9395 86.0946 88.1819 80.6125C89.4244 75.1304 89.4171 69.4389 88.1606 63.96C86.9041 58.4811 84.4306 53.3552 80.9235 48.9623C77.4164 44.5694 72.9656 41.0221 67.901 38.5835C62.8364 36.1448 57.2879 34.8772 51.6668 34.8747Z" fill="white"/>
<path d="M38.7503 72.3337C38.7503 73.7039 38.206 75.0181 37.237 75.987C36.2681 76.956 34.9539 77.5003 33.5837 77.5003C32.2134 77.5003 30.8992 76.956 29.9303 75.987C28.9613 75.0181 28.417 73.7039 28.417 72.3337C28.417 70.9634 28.9613 69.6492 29.9303 68.6803C30.8992 67.7113 32.2134 67.167 33.5837 67.167C34.9539 67.167 36.2681 67.7113 37.237 68.6803C38.206 69.6492 38.7503 70.9634 38.7503 72.3337ZM56.8337 72.3337C56.8337 73.7039 56.2893 75.0181 55.3204 75.987C54.3514 76.956 53.0373 77.5003 51.667 77.5003C50.2967 77.5003 48.9825 76.956 48.0136 75.987C47.0447 75.0181 46.5003 73.7039 46.5003 72.3337C46.5003 70.9634 47.0447 69.6492 48.0136 68.6803C48.9825 67.7113 50.2967 67.167 51.667 67.167C53.0373 67.167 54.3514 67.7113 55.3204 68.6803C56.2893 69.6492 56.8337 70.9634 56.8337 72.3337ZM74.917 72.3337C74.917 73.7039 74.3726 75.0181 73.4037 75.987C72.4348 76.956 71.1206 77.5003 69.7503 77.5003C68.38 77.5003 67.0659 76.956 66.0969 75.987C65.128 75.0181 64.5837 73.7039 64.5837 72.3337C64.5837 70.9634 65.128 69.6492 66.0969 68.6803C67.0659 67.7113 68.38 67.167 69.7503 67.167C71.1206 67.167 72.4348 67.7113 73.4037 68.6803C74.3726 69.6492 74.917 70.9634 74.917 72.3337Z" fill="white"/>
</svg>
