<svg width="72" height="72" viewBox="0 0 72 72" fill="none" xmlns="http://www.w3.org/2000/svg">
<path d="M60 12H12C8.7 12 6.03 14.7 6.03 18L6 54C6 57.3 8.7 60 12 60H60C63.3 60 66 57.3 66 54V18C66 14.7 63.3 12 60 12ZM58.8 24.75L37.59 38.01C36.63 38.61 35.37 38.61 34.41 38.01L13.2 24.75C12.8992 24.5811 12.6358 24.353 12.4257 24.0794C12.2156 23.8057 12.0632 23.4923 11.9777 23.1581C11.8923 22.8239 11.8755 22.4758 11.9285 22.1349C11.9814 21.794 12.103 21.4674 12.2858 21.1749C12.4687 20.8824 12.709 20.63 12.9922 20.433C13.2754 20.236 13.5956 20.0985 13.9335 20.0289C14.2714 19.9593 14.6198 19.9589 14.9579 20.0278C15.2959 20.0968 15.6164 20.2336 15.9 20.43L36 33L56.1 20.43C56.3836 20.2336 56.7041 20.0968 57.0421 20.0278C57.3802 19.9589 57.7286 19.9593 58.0665 20.0289C58.4044 20.0985 58.7246 20.236 59.0078 20.433C59.291 20.63 59.5313 20.8824 59.7142 21.1749C59.897 21.4674 60.0186 21.794 60.0715 22.1349C60.1245 22.4758 60.1077 22.8239 60.0223 23.1581C59.9368 23.4923 59.7844 23.8057 59.5743 24.0794C59.3642 24.353 59.1008 24.5811 58.8 24.75Z" fill="white"/>
</svg>
