<svg width="72" height="72" viewBox="0 0 72 72" fill="none" xmlns="http://www.w3.org/2000/svg">
<g clip-path="url(#clip0_330_694)">
<path d="M72 36.8999C72 44.9423 69.7104 52.1747 65.1312 58.5971C60.552 65.0195 54.6384 69.4631 47.3904 71.9279C46.5456 72.0911 45.9288 71.9795 45.54 71.5931C45.3484 71.4064 45.1973 71.1821 45.0963 70.9343C44.9954 70.6866 44.9466 70.4206 44.9532 70.1531V60.0119C44.9532 56.9039 44.1408 54.6299 42.516 53.1899C44.1375 53.0232 45.744 52.7344 47.322 52.3259C48.7404 51.9419 50.208 51.3179 51.7248 50.4539C53.1799 49.6357 54.4683 48.5513 55.5228 47.2571C56.538 45.9899 57.366 44.3075 58.0068 42.2099C58.6476 40.1123 58.968 37.7027 58.968 34.9811C58.968 31.1027 57.7344 27.8027 55.2672 25.0811C56.4192 22.1675 56.2932 18.8999 54.8892 15.2783C54.0156 14.9903 52.7508 15.1667 51.0948 15.8075C49.5932 16.373 48.149 17.0806 46.782 17.9207L45 19.0727C42.0734 18.2368 39.0436 17.8175 36 17.8271C32.9562 17.8187 29.9264 18.2392 27 19.0763C26.3484 18.6261 25.6846 18.194 25.0092 17.7803C24.1812 17.2667 22.8756 16.6499 21.0924 15.9299C19.314 15.2099 17.97 14.9939 17.0604 15.2819C15.6876 18.8987 15.5796 22.1651 16.7364 25.0811C14.2644 27.8027 13.0284 31.1027 13.0284 34.9811C13.0284 37.7027 13.35 40.1051 13.9932 42.1883C14.634 44.2691 15.4536 45.9503 16.452 47.2319C17.484 48.544 18.7664 49.638 20.2248 50.4503C21.7416 51.3143 23.2104 51.9383 24.6312 52.3223C26.0544 52.7111 27.6564 53.0003 29.4372 53.1899C28.1892 54.3419 27.4236 55.9919 27.1404 58.1399C26.4698 58.4664 25.7611 58.7083 25.0308 58.8599C24.1511 59.0325 23.2559 59.1133 22.3596 59.1011C21.3276 59.1011 20.304 58.7567 19.2888 58.0679C18.2736 57.3767 17.406 56.3759 16.686 55.0655C16.1269 54.0721 15.3503 53.218 14.4144 52.5671C13.4928 51.9263 12.7188 51.5423 12.0924 51.4151L11.1564 51.2711C10.5012 51.2711 10.0476 51.3431 9.7956 51.4871C9.5436 51.6311 9.4656 51.8147 9.5616 52.0379C9.66554 52.2832 9.8077 52.5104 9.9828 52.7111C10.1636 52.9263 10.369 53.1197 10.5948 53.2871L10.9188 53.5247C11.6076 53.8487 12.288 54.4583 12.96 55.3535C13.632 56.2511 14.124 57.0671 14.436 57.8015L14.904 58.9067C15.312 60.1235 16.0008 61.1087 16.9704 61.8623C17.94 62.6183 18.9864 63.0983 20.1096 63.3023C21.2328 63.5111 22.3188 63.6239 23.3676 63.6407C24.414 63.6551 25.2816 63.5987 25.9704 63.4715L27.0468 63.2807C27.0468 64.4975 27.0552 65.9231 27.072 67.5575L27.0936 70.1495C27.0936 70.7255 26.8896 71.2055 26.4816 71.5895C26.0784 71.9783 25.4544 72.0911 24.6096 71.9279C17.3592 69.4607 11.4456 65.0171 6.8688 58.5971C2.2896 52.1723 0 44.9399 0 36.8999C0 30.2039 1.6092 24.0299 4.8276 18.3779C7.94565 12.8326 12.4641 8.20245 17.9316 4.94991C23.3838 1.66784 29.6363 -0.0451015 36 -8.62922e-05C42.3649 -0.0457655 48.6188 1.6672 54.072 4.94991C59.5382 8.20294 64.0553 12.8331 67.1724 18.3779C70.3908 24.0323 72 30.2063 72 36.8999Z" fill="white"/>
</g>
<defs>
<clipPath id="clip0_330_694">
<rect width="72" height="72" fill="white"/>
</clipPath>
</defs>
</svg>
