<svg width="33" height="33" viewBox="0 0 33 33" fill="none" xmlns="http://www.w3.org/2000/svg">
<path d="M33 16.9119C33 20.598 31.9506 23.9129 29.8518 26.8565C27.753 29.8001 25.0426 31.8367 21.7206 32.9664C21.3334 33.0412 21.0507 32.9901 20.8725 32.813C20.7847 32.7274 20.7154 32.6246 20.6692 32.511C20.6229 32.3975 20.6005 32.2756 20.6035 32.153V27.5049C20.6035 26.0804 20.2312 25.0382 19.4865 24.3782C20.2297 24.3018 20.966 24.1694 21.6893 23.9822C22.3393 23.8062 23.012 23.5202 23.7072 23.1242C24.3741 22.7492 24.9646 22.2521 25.448 21.659C25.9132 21.0782 26.2928 20.3071 26.5865 19.3457C26.8802 18.3843 27.027 17.2799 27.027 16.0325C27.027 14.2549 26.4616 12.7424 25.3308 11.495C25.8588 10.1596 25.801 8.66193 25.1575 7.00203C24.7571 6.87003 24.1775 6.95088 23.4184 7.24458C22.7302 7.50376 22.0683 7.82809 21.4417 8.21313L20.625 8.74113C19.2836 8.35803 17.895 8.16584 16.5 8.17023C15.1049 8.16638 13.7163 8.35912 12.375 8.74278C12.0764 8.53646 11.7721 8.33838 11.4626 8.14878C11.083 7.91338 10.4847 7.63068 9.66735 7.30068C8.85225 6.97068 8.23625 6.87168 7.81935 7.00368C7.19015 8.66138 7.14065 10.1585 7.67085 11.495C6.53785 12.7424 5.97135 14.2549 5.97135 16.0325C5.97135 17.2799 6.11875 18.381 6.41355 19.3358C6.70725 20.2895 7.0829 21.06 7.5405 21.6474C8.01349 22.2488 8.60128 22.7502 9.2697 23.1225C9.9649 23.5185 10.6381 23.8045 11.2893 23.9805C11.9416 24.1587 12.6758 24.2913 13.4921 24.3782C12.92 24.9062 12.5691 25.6624 12.4394 26.6469C12.132 26.7966 11.8072 26.9074 11.4725 26.9769C11.0693 27.056 10.659 27.0931 10.2481 27.0875C9.77515 27.0875 9.306 26.9296 8.8407 26.6139C8.3754 26.2971 7.97775 25.8384 7.64775 25.2378C7.39147 24.7825 7.03555 24.3911 6.6066 24.0927C6.1842 23.799 5.82945 23.623 5.54235 23.5647L5.11335 23.4987C4.81305 23.4987 4.60515 23.5317 4.48965 23.5977C4.37415 23.6637 4.3384 23.7479 4.3824 23.8502C4.43004 23.9626 4.4952 24.0667 4.57545 24.1587C4.65832 24.2574 4.75246 24.346 4.85595 24.4227L5.00445 24.5316C5.32015 24.6801 5.632 24.9595 5.94 25.3698C6.248 25.7812 6.4735 26.1552 6.6165 26.4918L6.831 26.9984C7.018 27.5561 7.3337 28.0076 7.7781 28.353C8.2225 28.6995 8.7021 28.9195 9.2169 29.013C9.7317 29.1087 10.2295 29.1604 10.7101 29.1681C11.1897 29.1747 11.5874 29.1489 11.9031 29.0906L12.3965 29.0031C12.3965 29.5608 12.4003 30.2142 12.408 30.9633L12.4179 32.1513C12.4179 32.4153 12.3244 32.6353 12.1374 32.8113C11.9526 32.9895 11.6666 33.0412 11.2794 32.9664C7.9563 31.8356 5.2459 29.799 3.1482 26.8565C1.0494 23.9118 0 20.5969 0 16.9119C0 13.8429 0.73755 11.0132 2.21265 8.42268C3.64176 5.88108 5.71271 3.75893 8.21865 2.26818C10.7176 0.763897 13.5833 -0.0212005 16.5 -0.000568522C19.4172 -0.0215048 22.2836 0.763604 24.783 2.26818C27.2883 3.75915 29.3587 5.88129 30.7873 8.42268C32.2625 11.0143 33 13.844 33 16.9119Z" fill="white"/>
</svg>
