<svg width="33" height="33" viewBox="0 0 33 33" fill="none" xmlns="http://www.w3.org/2000/svg">
<path d="M29.3333 0C30.3058 0 31.2384 0.386308 31.9261 1.07394C32.6137 1.76157 33 2.69421 33 3.66667V29.3333C33 30.3058 32.6137 31.2384 31.9261 31.9261C31.2384 32.6137 30.3058 33 29.3333 33H3.66667C2.69421 33 1.76157 32.6137 1.07394 31.9261C0.386308 31.2384 0 30.3058 0 29.3333V3.66667C0 2.69421 0.386308 1.76157 1.07394 1.07394C1.76157 0.386308 2.69421 0 3.66667 0H29.3333ZM28.4167 28.4167V18.7C28.4167 17.1149 27.787 15.5947 26.6661 14.4739C25.5453 13.353 24.0251 12.7233 22.44 12.7233C20.8817 12.7233 19.0667 13.6767 18.1867 15.1067V13.0717H13.0717V28.4167H18.1867V19.3783C18.1867 17.9667 19.3233 16.8117 20.735 16.8117C21.4157 16.8117 22.0686 17.0821 22.5499 17.5634C23.0313 18.0448 23.3017 18.6976 23.3017 19.3783V28.4167H28.4167ZM7.11333 10.1933C7.9302 10.1933 8.71361 9.86884 9.29122 9.29122C9.86884 8.71361 10.1933 7.9302 10.1933 7.11333C10.1933 5.40833 8.81833 4.015 7.11333 4.015C6.2916 4.015 5.50353 4.34143 4.92248 4.92248C4.34143 5.50353 4.015 6.2916 4.015 7.11333C4.015 8.81833 5.40833 10.1933 7.11333 10.1933ZM9.66167 28.4167V13.0717H4.58333V28.4167H9.66167Z" fill="white"/>
</svg>
