<svg width="72" height="72" viewBox="0 0 72 72" fill="none" xmlns="http://www.w3.org/2000/svg">
<path d="M64 0C66.1217 0 68.1566 0.842854 69.6569 2.34315C71.1571 3.84344 72 5.87827 72 8V64C72 66.1217 71.1571 68.1566 69.6569 69.6569C68.1566 71.1571 66.1217 72 64 72H8C5.87827 72 3.84344 71.1571 2.34315 69.6569C0.842854 68.1566 0 66.1217 0 64V8C0 5.87827 0.842854 3.84344 2.34315 2.34315C3.84344 0.842854 5.87827 0 8 0H64ZM62 62V40.8C62 37.3416 60.6261 34.0248 58.1807 31.5793C55.7352 29.1339 52.4184 27.76 48.96 27.76C45.56 27.76 41.6 29.84 39.68 32.96V28.52H28.52V62H39.68V42.28C39.68 39.2 42.16 36.68 45.24 36.68C46.7252 36.68 48.1496 37.27 49.1998 38.3202C50.25 39.3704 50.84 40.7948 50.84 42.28V62H62ZM15.52 22.24C17.3023 22.24 19.0115 21.532 20.2718 20.2718C21.532 19.0115 22.24 17.3023 22.24 15.52C22.24 11.8 19.24 8.76 15.52 8.76C13.7271 8.76 12.0077 9.47221 10.74 10.74C9.47221 12.0077 8.76 13.7271 8.76 15.52C8.76 19.24 11.8 22.24 15.52 22.24ZM21.08 62V28.52H10V62H21.08Z" fill="white"/>
</svg>
